# xmcd
#
# Track frame offsets:
#	150
#	9634
#	19756
#	31374
#	44994
#	55593
#	66331
#	78572
#	88516
#	100152
#	110285
#	121226
#	134566
#	145003
#	157901
#
# Disc length: 2287 seconds
#
# Revision: 1
# Processed by: cddbd v1.5.2PL0 Copyright (c) Steve Scherf et al.
# Submitted via: EasyCDDAExtractor 12.0.5.1
#
DISCID=c508ed0f
DTITLE=Various Artist - Golden Age of Country - Heartbreak U.S.A. Disc 1
DYEAR=2009
DGENRE=Country
TTITLE0=Roger Miller - Chug-A-Lug
TTITLE1=Loretta Lynn - Fist City
TTITLE2=Conway Twitty - Darling, You Know I Wouldn't Lie
TTITLE3=Patsy Cline - She's Got You
TTITLE4=Bill Anderson - I Get The Fever
TTITLE5=Leroy Van Dyke - If A Woman Answers (Hang Up The Phone)
TTITLE6=Jack Greene - All The Time
TTITLE7=Dave Dudley - Truck Drivin' Son-Of-A-Gun
TTITLE8=George Jones - The Window Up Above
TTITLE9=Wilburn Brothers - Roll Muddy River
TTITLE10=Hank Williams - Why Don't You Love Me
TTITLE11=Kitty Wells with Red Foley - One By One
TTITLE12=The Carlisles - Too Old To Cut The Mustard
TTITLE13=Webb Pierce - Love, Love, Love
TTITLE14=Ernest Tubb with Red Foley and The Sunshine Trio - Goodnight Irene
EXTD=
EXTT0=
EXTT1=
EXTT2=
EXTT3=
EXTT4=
EXTT5=
EXTT6=
EXTT7=
EXTT8=
EXTT9=
EXTT10=
EXTT11=
EXTT12=
EXTT13=
EXTT14=
PLAYORDER=
